# xmcd
#
# Track frame offsets:
#	150
#	51467
#	94647
#	133012
#	159210
#
# Disc length: 2962 seconds
#
# Revision: 0
# Processed by: cddbd v1.4PL0 Copyright (c) Steve Scherf et al.
# Submitted via: EasyCDDAExtractor 5.0.4.1
#
DISCID=390b9005
DTITLE=NADA - NADA plays compositions by Eer
DYEAR=1998
DGENRE=Blues - Suomi
TTITLE0=Blues
TTITLE1=Music For Mani IV
TTITLE2=Music For Mani II
TTITLE3=After
TTITLE4=Takita Taka Takita Takita Taka
EXTD=
EXTT0=
EXTT1=
EXTT2=
EXTT3=
EXTT4=
PLAYORDER=
